<svg xmlns="http://www.w3.org/2000/svg" viewBox="0 0 500 500"><g id="freepik--background-complete--inject-33"><path d="M426.27,139.26s-7.25-5.57-17.82,12S393.61,179,393.61,179s-2.72,3.64-5.16,1-5.52-10-10.07-9.05c-4.71,1-6.6,6-6.26,13.67s.48,24.38.48,25.9-1,3.6-3,2-12.84-15.57-19.18-10-1.91,26.68-1.46,29-.08,3.25-1.2,3.74-4.33-4.57-7.59-8.43-7.72-7.77-11.11-4.25-5.5,19,7.48,45.24l6.81,11.78,13.66.21c29.27-1.32,41.78-10.62,43.23-15.29s-4.13-6.68-9.09-7.67-10.93-1.37-11.05-2.59.46-2.12,2.71-2.85,22.87-7,24.68-15.27-15.72-11-18-12-.93-2.86.37-3.57,16.07-8.7,22.92-12.09,10.35-7.48,8.94-12.08c-1.35-4.44-9.26-3.6-12.78-4.45s-1.65-5-1.65-5,6.91-8.68,17.16-26.4,1.64-21.43,1.64-21.43" style="fill:#ebebeb"></path><path d="M416.77,155s-.06.13-.19.38l-.62,1.1c-.55,1-1.36,2.39-2.39,4.21-2.08,3.65-5.13,8.92-8.92,15.41-7.58,13-18.2,30.84-30,50.52s-22.46,37.51-30.1,50.45l-9,15.35-2.46,4.16-.65,1.08c-.15.25-.23.36-.23.36s.06-.13.19-.38.35-.63.61-1.1l2.4-4.21c2.08-3.65,5.13-8.92,8.92-15.41,7.58-13,18.2-30.84,30-50.52s22.46-37.51,30.1-50.45l9-15.34,2.46-4.17.65-1.08C416.69,155.06,416.77,155,416.77,155Z" style="fill:#e0e0e0"></path><path d="M382.28,181.33a4,4,0,0,1,.28.94c.15.62.35,1.51.58,2.62.46,2.21,1,5.28,1.57,8.69s1,6.39,1.39,8.71c.17,1.05.32,1.93.43,2.64a5.27,5.27,0,0,1,.13,1,4.25,4.25,0,0,1-.29-.94c-.15-.61-.35-1.51-.57-2.62-.44-2.21-.95-5.29-1.51-8.7s-1.06-6.38-1.44-8.7c-.18-1-.33-1.92-.45-2.63A4.74,4.74,0,0,1,382.28,181.33Z" style="fill:#e0e0e0"></path><path d="M387.88,206.23c0-.11,6.27-1.54,14-3.18s14.1-2.89,14.13-2.78-6.26,1.54-14,3.19S387.91,206.35,387.88,206.23Z" style="fill:#e0e0e0"></path><path d="M368.41,235.64a4.24,4.24,0,0,1,1,0l2.72.2c2.3.17,5.48.39,9,.5s6.7.12,9,.1h2.73a3.89,3.89,0,0,1,1,0,4.35,4.35,0,0,1-1,.12c-.65,0-1.58.11-2.73.15-2.31.1-5.5.15-9,0s-6.71-.38-9-.62c-1.15-.13-2.08-.24-2.72-.34A3.92,3.92,0,0,1,368.41,235.64Z" style="fill:#e0e0e0"></path><path d="M358.38,214.23a3.56,3.56,0,0,1,.48.8c.31.61.7,1.35,1.16,2.24,1,1.9,2.26,4.54,3.68,7.47s2.68,5.58,3.57,7.52c.41.9.76,1.67,1,2.3a3.48,3.48,0,0,1,.33.87,3.56,3.56,0,0,1-.48-.8c-.31-.61-.7-1.36-1.16-2.24-1-1.9-2.26-4.54-3.68-7.47s-2.68-5.59-3.57-7.52l-1-2.3A4.31,4.31,0,0,1,358.38,214.23Z" style="fill:#e0e0e0"></path><path d="M337.89,238a7.56,7.56,0,0,1,.6,1l1.5,2.87c1.24,2.43,2.94,5.8,4.79,9.53s3.51,7.13,4.69,9.59l1.37,2.93a5.47,5.47,0,0,1,.45,1.1,9.15,9.15,0,0,1-.6-1l-1.49-2.87c-1.25-2.43-2.95-5.8-4.8-9.53s-3.5-7.12-4.68-9.59l-1.38-2.93A5.21,5.21,0,0,1,337.89,238Z" style="fill:#e0e0e0"></path><path d="M351.16,264.31a6.88,6.88,0,0,1,1.27,0l3.46.14c2.92.11,7,.24,11.42.27s8.5-.05,11.42-.13l3.47-.09a7.88,7.88,0,0,1,1.27,0,7.44,7.44,0,0,1-1.27.15c-.81.07-2,.15-3.46.22-2.92.15-7,.28-11.43.25s-8.51-.21-11.43-.4c-1.47-.09-2.65-.18-3.46-.26A6.69,6.69,0,0,1,351.16,264.31Z" style="fill:#e0e0e0"></path><rect x="58.27" y="172.79" width="5.75" height="255.52" transform="translate(-1.61 0.33) rotate(-0.31)" style="fill:#e0e0e0"></rect><rect x="72.03" y="172.71" width="5.75" height="255.52" transform="translate(-1.61 0.41) rotate(-0.31)" style="fill:#e0e0e0"></rect><rect x="192.3" y="172.07" width="5.75" height="255.52" transform="translate(-1.6 1.05) rotate(-0.31)" style="fill:#e0e0e0"></rect><rect x="206.07" y="172" width="5.75" height="255.52" transform="translate(-1.6 1.12) rotate(-0.31)" style="fill:#e0e0e0"></rect><rect x="57.6" y="172.39" width="153.55" height="5.83" transform="translate(-0.94 0.72) rotate(-0.31)" style="fill:#e0e0e0"></rect><rect x="57.87" y="224.85" width="153.55" height="1.74" transform="translate(-1.21 0.72) rotate(-0.31)" style="fill:#e0e0e0"></rect><rect x="58.13" y="274.3" width="153.55" height="1.74" transform="translate(-1.47 0.73) rotate(-0.31)" style="fill:#e0e0e0"></rect><rect x="58.4" y="323.74" width="153.55" height="1.74" transform="translate(-1.74 0.73) rotate(-0.31)" style="fill:#e0e0e0"></rect><rect x="58.66" y="373.19" width="153.55" height="1.74" transform="translate(-2 0.73) rotate(-0.31)" style="fill:#e0e0e0"></rect><rect x="120.91" y="344.34" width="27.2" height="28.86" transform="matrix(1, -0.01, 0.01, 1, -1.92, 0.73)" style="fill:#ebebeb"></rect><rect x="147.99" y="344.19" width="27.2" height="28.86" transform="translate(-1.92 0.87) rotate(-0.31)" style="fill:#f5f5f5"></rect><path d="M120.88,352.31c18.07.18,36.2,0,54.27-.26a.21.21,0,0,0,0-.42c-18.07-.09-36.2-.05-54.27.32a.18.18,0,0,0,0,.36Z" style="fill:#e0e0e0"></path><rect x="120.31" y="235.7" width="19.92" height="21.13" transform="matrix(1, -0.01, 0.01, 1, -1.32, 0.7)" style="fill:#ebebeb"></rect><rect x="140.14" y="235.59" width="19.92" height="21.13" transform="matrix(1, -0.01, 0.01, 1, -1.32, 0.81)" style="fill:#f5f5f5"></rect><path d="M120.29,241.59q19.86.16,39.75-.18a.22.22,0,0,0,0-.43c-13.23-.07-26.51,0-39.75.25a.18.18,0,0,0,0,.36Z" style="fill:#e0e0e0"></path><rect x="107.88" y="256.53" width="36.2" height="17.22" transform="matrix(1, -0.01, 0.01, 1, -1.42, 0.68)" style="fill:#ebebeb"></rect><rect x="143.9" y="256.33" width="36.2" height="17.22" transform="matrix(1, -0.01, 0.01, 1, -1.42, 0.87)" style="fill:#f5f5f5"></rect><path d="M107.86,261.41c24,.27,48.18,0,72.22-.35a.22.22,0,0,0,0-.43c-24.05-.12-48.18-.11-72.22.42a.18.18,0,0,0,0,.36Z" style="fill:#e0e0e0"></path><rect x="108.92" y="189.61" width="9.09" height="35.45" transform="translate(-1.11 0.61) rotate(-0.31)" style="fill:#ebebeb"></rect><rect x="99.67" y="199.24" width="9.09" height="25.78" transform="translate(-1.13 0.56) rotate(-0.31)" style="fill:#e0e0e0"></rect><rect x="118.14" y="196.19" width="14.13" height="28.73" transform="translate(-1.13 0.67) rotate(-0.31)" style="fill:#e0e0e0"></rect><rect x="132.05" y="196.14" width="4.49" height="28.73" transform="matrix(1, -0.01, 0.01, 1, -1.12, 0.72)" style="fill:#ebebeb"></rect><rect x="136.56" y="202.75" width="4.49" height="22.09" transform="translate(-1.15 0.75) rotate(-0.31)" style="fill:#e0e0e0"></rect><rect x="100.93" y="290.43" width="9.09" height="33.24" transform="translate(124.37 -17.06) rotate(22.29)" style="fill:#e0e0e0"></rect><rect x="114.87" y="288.59" width="9.09" height="35.45" transform="translate(-1.64 0.64) rotate(-0.31)" style="fill:#ebebeb"></rect><rect x="128.64" y="295.15" width="14.13" height="28.73" transform="translate(-1.66 0.73) rotate(-0.31)" style="fill:#e0e0e0"></rect><rect x="125.52" y="284.55" width="3.09" height="39.37" transform="translate(-1.63 0.69) rotate(-0.31)" style="fill:#ebebeb"></rect><rect x="123.99" y="290.7" width="1.55" height="33.24" transform="translate(-1.65 0.67) rotate(-0.31)" style="fill:#f5f5f5"></rect><rect x="158.83" y="306.44" width="1.55" height="33.24" transform="translate(-162.59 484.39) rotate(-90.31)" style="fill:#f5f5f5"></rect><rect x="142.81" y="313.08" width="36.23" height="9.19" transform="translate(-1.7 0.87) rotate(-0.31)" style="fill:#ebebeb"></rect><rect x="142.76" y="303.84" width="29.1" height="9.19" transform="matrix(1, -0.01, 0.01, 1, -1.65, 0.85)" style="fill:#e0e0e0"></rect><path d="M249.93,43c1.29-6.1.51-13.06.58-19.28s.86-13.17-.25-19.31a.86.86,0,0,0-1.64,0c-1.12,6.15-.46,13.06-.52,19.31s-1,13.18.3,19.28a.8.8,0,0,0,1.53,0Z" style="fill:#e0e0e0"></path><path d="M194.94,91.45H305.06s-10.17-48.67-55.89-48.67C208.49,42.78,194.94,91.45,194.94,91.45Z" style="fill:#f5f5f5"></path></g><g id="freepik--Floor--inject-33"><path d="M478.44,428.37c0,.14-101.34.26-226.32.26s-226.35-.12-226.35-.26,101.32-.26,226.35-.26S478.44,428.22,478.44,428.37Z" style="fill:#263238"></path></g><g id="freepik--Device--inject-33"><rect x="156.18" y="138.42" width="187.64" height="289.62" rx="11.55" style="fill:#455a64"></rect><path d="M255.75,414.57a7.22,7.22,0,1,1-7.2-7.74A7.49,7.49,0,0,1,255.75,414.57Z" style="fill:#263238"></path><rect x="221.74" y="146.76" width="56.51" height="3.2" rx="1.22" style="fill:#263238"></rect><rect x="162.58" y="155.04" width="175.8" height="244.35" style="fill:#263238"></rect><path d="M292.74,374.17l.65-.06a13.39,13.39,0,0,0,1.88-.25,12.62,12.62,0,0,0,2.9-1,12.14,12.14,0,0,0,3.41-2.4,12.39,12.39,0,0,0,2.86-4.36,13.49,13.49,0,0,0,.81-6.12A12.54,12.54,0,0,0,296.13,349a14.16,14.16,0,0,0-2.08-.4c-.72,0-1.44-.08-2.19-.07H287.3l-9.67,0-21.35,0-48.91,0a12.76,12.76,0,0,0-6.06,1.58A12.48,12.48,0,0,0,195,360.28a13.32,13.32,0,0,0,.91,6,12.83,12.83,0,0,0,3.49,4.76,12.54,12.54,0,0,0,5.18,2.59,24.55,24.55,0,0,0,5.75.35H216l39.95.06,26.93.08,7.32.05,1.9,0,.65,0-.65,0-1.9,0-7.32,0-26.93.08-39.95.06h-8.61c-.49,0-1,0-1.49-.09a14.58,14.58,0,0,1-1.47-.26,13,13,0,0,1-5.39-2.69,13.37,13.37,0,0,1-3.64-4.95,13.83,13.83,0,0,1-.95-6.18,12.61,12.61,0,0,1,1.95-6,12.89,12.89,0,0,1,4.66-4.44,13.23,13.23,0,0,1,6.32-1.65l48.91,0,21.35,0h14.23c.74,0,1.49,0,2.23.07a15,15,0,0,1,2.14.43A12.86,12.86,0,0,1,305.54,360a13.69,13.69,0,0,1-.87,6.23,12.61,12.61,0,0,1-2.94,4.41,12.28,12.28,0,0,1-3.49,2.4,12.81,12.81,0,0,1-2.95,1,11.91,11.91,0,0,1-1.9.19C293,374.18,292.74,374.17,292.74,374.17Z" style="fill:#fff"></path><path d="M227.93,359.58l-.62.78a2.43,2.43,0,0,0-1.75-.8,2.22,2.22,0,1,0,0,4.43,2.57,2.57,0,0,0,1.75-.74l.63.7a3.58,3.58,0,0,1-2.44,1,3.19,3.19,0,1,1,0-6.37A3.48,3.48,0,0,1,227.93,359.58Z" style="fill:#fff"></path><path d="M235,361.79a3.34,3.34,0,1,1-3.34-3.18A3.22,3.22,0,0,1,235,361.79Zm-5.6,0a2.26,2.26,0,0,0,2.27,2.24,2.24,2.24,0,1,0-2.27-2.24Z" style="fill:#fff"></path><path d="M240.6,364.94l-3.36-4.52v4.52h-1.06v-6.3h1l3.38,4.53v-4.53h1v6.3Z" style="fill:#fff"></path><path d="M244.37,359.59v1.82h2.86v.95h-2.86v2.58H243.3v-6.3h4.24v.95Z" style="fill:#fff"></path><path d="M248.48,364.94v-6.3h1.06v6.3Z" style="fill:#fff"></path><path d="M254,363h-1.78v1.9H251.2v-6.3h2.55c1.61,0,2.54.78,2.54,2.15a2,2,0,0,1-1.3,2l1.41,2.11h-1.21Zm-.29-.94c1,0,1.53-.42,1.53-1.27s-.55-1.23-1.53-1.23h-1.49v2.5Z" style="fill:#fff"></path><path d="M263.38,364.94v-4.71l-2,4h-.7l-2-4v4.71h-1v-6.3H259l2.08,4.18,2.07-4.18h1.26v6.3Z" style="fill:#fff"></path><path d="M267.09,359.59v1.7h3.08v1h-3.08V364h3.55v.95H266v-6.3h4.5v.95Z" style="fill:#fff"></path><path d="M274.52,358.64a3.15,3.15,0,1,1,0,6.3h-2.56v-6.3ZM273,364h1.54a2.11,2.11,0,0,0,2.16-2.19,2.15,2.15,0,0,0-2.2-2.21H273Z" style="fill:#fff"></path></g><g id="freepik--Envelope--inject-33"><polygon points="182.55 240.22 315.71 239.26 319.42 329.79 181.54 328.51 182.55 240.22" style="fill:#FF725E"></polygon><polyline points="182.55 240.22 250.15 185.52 315.71 239.26" style="fill:#FF725E"></polyline><g style="opacity:0.30000000000000004"><polyline points="182.55 240.22 250.15 185.52 315.71 239.26"></polyline></g><path d="M181.54,328.51c-.17-.15,10.49-11.79,23.81-26s24.24-25.59,24.41-25.43-10.49,11.79-23.81,26S181.71,328.67,181.54,328.51Z" style="fill:#263238"></path><path d="M319.42,329.79c-.17.15-10.55-11.25-23.18-25.47s-22.74-25.87-22.57-26,10.55,11.25,23.18,25.47S319.59,329.64,319.42,329.79Z" style="fill:#263238"></path><g style="opacity:0.5"><polyline points="315.71 239.26 248.84 292.68 182.55 240.22"></polyline></g><polygon points="189.26 245.17 189.06 206.44 305.69 203.58 306.96 245.96 248.84 291.98 189.26 245.17" style="fill:#ebebeb"></polygon><path d="M250.47,278.06a29,29,0,0,1-28.89-32.28,29,29,0,0,1,57.66,6.53h0a29,29,0,0,1-28.77,25.75Zm-.08-57a28,28,0,1,0,27.85,31.17h0a28,28,0,0,0-24.68-31A28.2,28.2,0,0,0,250.39,221Z" style="fill:#FF725E"></path><polygon points="230.69 253.07 235.54 247.13 246.88 255.32 265.31 233.6 270.87 238.49 247.16 265.81 230.69 253.07" style="fill:#FF725E"></polygon></g><g id="freepik--Character--inject-33"><path d="M375.93,292.34a1.2,1.2,0,0,0,1.77.71,2,2,0,0,0,.78-2,5.79,5.79,0,0,0-.89-2.06,2.2,2.2,0,1,0,1.11-4.12,5.75,5.75,0,0,0,2.62-1.09,2.33,2.33,0,0,0,.74-2.58,1.48,1.48,0,0,0-2.35-.46,4.32,4.32,0,0,0,1.33-1.15,1.48,1.48,0,0,0,.07-1.66,1.61,1.61,0,0,0-1.87-.34,15.68,15.68,0,0,0-1.77,1,4.64,4.64,0,0,1-4.64-.17l-3.73,3.08Z" style="fill:#263238"></path><path d="M356,275.41a5.71,5.71,0,0,0-3.88,4.77,3,3,0,0,0,.55,2.25,2.69,2.69,0,0,0,2.63.72,6.79,6.79,0,0,0,2.51-1.31,5,5,0,0,0,2.36-3.13,3.2,3.2,0,0,0-2-3.13,4.71,4.71,0,0,0-3.83.22" style="fill:#263238"></path><path d="M359.23,293.88a11.63,11.63,0,0,1-1.65,3.72,4.88,4.88,0,0,1-3.37,2.09,3.12,3.12,0,0,1-3.24-1.94,2.31,2.31,0,0,1-1.66,1.6,1.91,1.91,0,0,1-2.06-.92,1.64,1.64,0,0,1,.58-2.11c-.8.45-1.8.91-2.59.44a1.64,1.64,0,0,1-.7-.93c-.41-1.26.37-2.58,1.24-3.58s1.89-2,2.1-3.28a7.68,7.68,0,0,0-.47-3.12,7.41,7.41,0,0,1-.14-3.5,4.3,4.3,0,0,1,2-2.82,3,3,0,0,1,3.32.19l.17,1.7,6.5,12.46" style="fill:#263238"></path><path d="M374.78,313.7s2.33,24.65.37,27.86-26,36.76-26,36.76l.06,0c-.47.2-1,.39-1.52.6a8,8,0,0,1-2.61.46,11.76,11.76,0,0,1-3.28-.31c-1-.34-1.83.67-1.31,1.43s3.15,1.74,6.41,1.43-.41,3.3-1.72,4.64-5.17,5.69-5.07,6.42c.14,1.07,1.31,1.12,2.59-.25s5.39-5.22,6.07-4.49-6.1,7.46-6.1,7.46-1.68,1.21-.92,2.08c1.35,1.56,8-6.14,8.63-6.89.43-.52,1.19.24.7.77s-6.9,6.58-5.53,8.18c1.05,1.23,5.54-6.29,7.56-6.8s-4,5.35-2.93,6.49c.39.42.74.68,3.7-3.19a110.89,110.89,0,0,0,6.45-10.48c3.15-3.41,34.2-37.12,34.44-43.42.25-6.63,1.44-29.07,1.44-29.07Z" style="fill:#eb996e"></path><path d="M337.75,423.42l-.29-9.15,17.14-.64.56,13.38-1.06.11c-4.72.44-24,1.9-27.23,1.06C323.31,427.24,337.75,423.42,337.75,423.42Z" style="fill:#FF725E"></path><g style="opacity:0.4"><path d="M330.7,425.54s-5.05,1.66-4.38,2.48,20.23.07,28.84-1l-.05-.38-22.81,1.06S331.7,425.54,330.7,425.54Z" style="fill:#fff"></path></g><path d="M355.38,426.61l-.29,0-.84.08-3.11.26c-2.63.19-6.26.41-10.28.57s-7.66.21-10.29.22h-3.12l-.85,0a1,1,0,0,1-.3,0l.3,0,.85,0,3.11-.05c2.64-.05,6.28-.13,10.29-.29s7.65-.35,10.28-.51l3.11-.19.85,0Z" style="fill:#263238"></path><path d="M332.31,428a6.94,6.94,0,0,0-.63-1.47,7.3,7.3,0,0,0-1.11-1.15,2.29,2.29,0,0,1,1.28,1A2.24,2.24,0,0,1,332.31,428Z" style="fill:#263238"></path><path d="M337.27,425.2s-.3-.25-.56-.64a1.88,1.88,0,0,1-.4-.75c.05,0,.3.25.57.63S337.32,425.17,337.27,425.2Z" style="fill:#263238"></path><path d="M338.63,424.41s-.31-.12-.62-.38-.52-.49-.48-.54.31.13.62.38S338.67,424.37,338.63,424.41Z" style="fill:#263238"></path><path d="M339.45,422.76a2.09,2.09,0,0,1-.89.15.45.45,0,1,1,0-.21A2.05,2.05,0,0,1,339.45,422.76Z" style="fill:#263238"></path><path d="M339.71,421.61a1.81,1.81,0,0,1-1,.33,1.86,1.86,0,0,1-1-.1,6.2,6.2,0,0,1,1-.11A5.14,5.14,0,0,1,339.71,421.61Z" style="fill:#263238"></path><path d="M336.63,423.73a3.18,3.18,0,0,1-1.1,0,6.71,6.71,0,0,1-1.18-.21,3.54,3.54,0,0,1-.68-.25.62.62,0,0,1-.29-.34.43.43,0,0,1,.15-.44,2,2,0,0,1,2.52.49,1.92,1.92,0,0,1,.39.72.69.69,0,0,1,0,.3,3.18,3.18,0,0,0-.54-.92,2,2,0,0,0-1-.58,1.71,1.71,0,0,0-1.31.14c-.17.14-.09.34.11.45a3.32,3.32,0,0,0,.62.24,6.9,6.9,0,0,0,1.15.25C336.21,423.71,336.63,423.69,336.63,423.73Z" style="fill:#263238"></path><path d="M336.35,423.79a1.09,1.09,0,0,1-.15-.76,1.65,1.65,0,0,1,.27-.81,1.08,1.08,0,0,1,.89-.6.44.44,0,0,1,.36.49,1.06,1.06,0,0,1-.17.5,3.32,3.32,0,0,1-.49.69c-.34.35-.6.49-.62.47s.21-.21.51-.57a3.7,3.7,0,0,0,.43-.67c.14-.24.23-.67-.05-.7s-.54.26-.7.49a1.89,1.89,0,0,0-.29.73A4.08,4.08,0,0,0,336.35,423.79Z" style="fill:#263238"></path><path d="M354.85,421.93s-.49,0-1.26.09a5.57,5.57,0,0,0-2.72,1.25,5.5,5.5,0,0,0-1.63,2.5c-.24.75-.24,1.24-.28,1.24a1.18,1.18,0,0,1,0-.35,4.7,4.7,0,0,1,.15-.93,5.21,5.21,0,0,1,4.47-3.85,4.25,4.25,0,0,1,.94,0A.92.92,0,0,1,354.85,421.93Z" style="fill:#263238"></path><path d="M352.81,414.87a30,30,0,0,1,.28,3.51,28.41,28.41,0,0,1,.07,3.53,32.9,32.9,0,0,1-.28-3.52A28.24,28.24,0,0,1,352.81,414.87Z" style="fill:#263238"></path><path d="M346.72,425.52a9.76,9.76,0,0,1-2.49.34,10.06,10.06,0,0,1-2.52-.1c0-.06,1.13,0,2.51-.11S346.71,425.46,346.72,425.52Z" style="fill:#263238"></path><path d="M350.08,425.39s-.09.24-.19.5-.16.49-.22.49-.1-.27,0-.57S350,425.35,350.08,425.39Z" style="fill:#263238"></path><path d="M351.28,423.76s-.06.22-.23.41-.34.31-.39.27.07-.22.24-.41S351.24,423.72,351.28,423.76Z" style="fill:#263238"></path><path d="M353.07,423c0,.06-.24.07-.49.17s-.43.24-.47.2.09-.28.4-.4S353.08,422.92,353.07,423Z" style="fill:#263238"></path><path d="M354.34,422.59c0,.05-.07.14-.21.2s-.27.07-.3,0,.08-.15.22-.21S354.32,422.53,354.34,422.59Z" style="fill:#263238"></path><g style="opacity:0.30000000000000004"><polygon points="354.81 421.47 337.68 421.84 337.63 419.77 354.91 420.38 354.81 421.47"></polygon></g><path d="M402.27,361.34l-54.18-.74S333,362,333,381.64l1.91,38.67H358l-1.57-37.06c1.29,0,18.77.58,18.77.58Z" style="fill:#263238"></path><path d="M334.92,420.31a3.23,3.23,0,0,1-.07-.67c0-.49-.07-1.13-.11-1.92l-.41-7.06c-.35-6-1-14.19-1.48-23.31-.16-4.55-.51-8.91,0-12.88a18.82,18.82,0,0,1,.59-2.86,13.45,13.45,0,0,1,1.11-2.53,14.46,14.46,0,0,1,3.14-3.8,16.32,16.32,0,0,1,3.4-2.23,17.17,17.17,0,0,1,2.88-1l1.08-.26.81-.13a3.38,3.38,0,0,1,.67-.07,2.82,2.82,0,0,1-.65.17l-.79.18-1.07.3a21.13,21.13,0,0,0-2.8,1.11,16.43,16.43,0,0,0-3.29,2.24,14.65,14.65,0,0,0-3,3.74,13.56,13.56,0,0,0-1,2.46,19.67,19.67,0,0,0-.56,2.79c-.51,3.88-.15,8.24,0,12.79.45,9.1,1.07,17.33,1.33,23.31.14,3,.21,5.4.24,7.07,0,.8,0,1.43,0,1.93A2.88,2.88,0,0,1,334.92,420.31Z" style="fill:#455a64"></path><path d="M438.33,423.43l-9.14.61L428,406.94l13.35-1,.15,1c.6,4.7,2.74,24,2,27.17C442.66,437.73,438.33,423.43,438.33,423.43Z" style="fill:#FF725E"></path><g style="opacity:0.4"><path d="M440.7,430.4s1.83,5,2.63,4.29-.64-20.22-2-28.78l-.38,0,1.87,22.77S440.66,429.4,440.7,430.4Z" style="fill:#fff"></path></g><path d="M440.89,405.7a1.19,1.19,0,0,1,.06.29c0,.25.07.53.11.84.1.84.22,1.88.36,3.1.29,2.62.64,6.24.93,10.25s.49,7.64.59,10.28c0,1.22.07,2.27.1,3.11,0,.32,0,.6,0,.85a1.36,1.36,0,0,1,0,.3,2.29,2.29,0,0,1,0-.3c0-.25,0-.53-.05-.84,0-.85-.1-1.89-.17-3.12-.14-2.63-.35-6.26-.64-10.27s-.63-7.63-.88-10.25c-.11-1.22-.21-2.26-.29-3.1,0-.32-.05-.59-.08-.85S440.89,405.7,440.89,405.7Z" style="fill:#263238"></path><path d="M443.05,428.7a7.92,7.92,0,0,0-1.44.69,6.71,6.71,0,0,0-1.11,1.15,2.28,2.28,0,0,1,1-1.32A2.31,2.31,0,0,1,443.05,428.7Z" style="fill:#263238"></path><path d="M440.12,423.84c0,.05-.24.31-.61.59s-.71.47-.75.42.25-.31.62-.59A2.11,2.11,0,0,1,440.12,423.84Z" style="fill:#263238"></path><path d="M439.29,422.51s-.12.32-.36.64-.48.54-.52.5.11-.32.36-.63S439.24,422.48,439.29,422.51Z" style="fill:#263238"></path><path d="M437.61,421.76c.06,0,.14.39.18.88a2,2,0,0,1,0,.9c-.06,0-.14-.39-.18-.88S437.55,421.76,437.61,421.76Z" style="fill:#263238"></path><path d="M436.45,421.54a1.72,1.72,0,0,1,.36,1,1.76,1.76,0,0,1-.06,1,5.23,5.23,0,0,1-.14-1A5.15,5.15,0,0,1,436.45,421.54Z" style="fill:#263238"></path><path d="M438.67,424.53a3,3,0,0,1,.08,1.1,6.38,6.38,0,0,1-.18,1.19,3.43,3.43,0,0,1-.22.69.63.63,0,0,1-.32.3.45.45,0,0,1-.46-.13,2,2,0,0,1,.41-2.54,1.92,1.92,0,0,1,.71-.41.59.59,0,0,1,.29-.05,2.88,2.88,0,0,0-.9.57,1.94,1.94,0,0,0-.54,1,1.65,1.65,0,0,0,.19,1.3c.14.17.34.09.44-.12a3.62,3.62,0,0,0,.22-.63,7.37,7.37,0,0,0,.21-1.16C438.67,425,438.64,424.54,438.67,424.53Z" style="fill:#263238"></path><path d="M438.75,424.81a1.09,1.09,0,0,1-.76.19,1.89,1.89,0,0,1-.82-.24,1.12,1.12,0,0,1-.63-.88.44.44,0,0,1,.48-.37,1.13,1.13,0,0,1,.51.15,3,3,0,0,1,.7.47,1.65,1.65,0,0,1,.49.59s-.21-.2-.58-.48a4.34,4.34,0,0,0-.69-.41c-.25-.13-.67-.21-.7.07s.29.54.52.69a1.78,1.78,0,0,0,.74.26A3.38,3.38,0,0,0,438.75,424.81Z" style="fill:#263238"></path><path d="M436.24,406.39s0,.49.14,1.26a5.53,5.53,0,0,0,1.33,2.67,5.61,5.61,0,0,0,2.56,1.55c.76.2,1.25.19,1.25.23a1.07,1.07,0,0,1-.35,0,4.26,4.26,0,0,1-.93-.12,5.22,5.22,0,0,1-4-4.34,4,4,0,0,1,0-.94A1,1,0,0,1,436.24,406.39Z" style="fill:#263238"></path><path d="M429.25,408.68a30.94,30.94,0,0,1,3.5-.4,28.72,28.72,0,0,1,3.52-.2,28.09,28.09,0,0,1-3.5.4A28.65,28.65,0,0,1,429.25,408.68Z" style="fill:#263238"></path><path d="M440.11,414.39a9.77,9.77,0,0,1,.43,2.48,9.24,9.24,0,0,1,0,2.52c-.06,0-.07-1.12-.19-2.5S440.05,414.41,440.11,414.39Z" style="fill:#263238"></path><path d="M439.86,411s.24.08.51.17.49.14.49.2-.26.11-.56,0S439.82,411.08,439.86,411Z" style="fill:#263238"></path><path d="M438.19,409.89s.23.06.42.22.32.33.28.38-.22-.06-.42-.22S438.16,409.94,438.19,409.89Z" style="fill:#263238"></path><path d="M437.34,408.14c.06,0,.08.23.18.48s.26.42.22.46-.28-.07-.41-.38S437.29,408.13,437.34,408.14Z" style="fill:#263238"></path><path d="M436.91,406.88s.15.06.21.2.08.27,0,.3-.15-.07-.22-.21S436.86,406.9,436.91,406.88Z" style="fill:#263238"></path><g style="opacity:0.30000000000000004"><polygon points="435.78 406.44 436.75 423.55 434.69 423.68 434.69 406.39 435.78 406.44"></polygon></g><path d="M382.3,406.52v0s46.17-25.21,51.4-33.42a17.68,17.68,0,0,0,1.54-16.4l-38.85,5.19-27.63,27.67h0c-6,4.77-16.87,14.74-16.87,24.57,0,16.82,21.75,14.07,37.36,14.11,21.34.05,45.29.14,45.29.14l.06-22.93Z" style="fill:#263238"></path><path d="M371.33,411.32a43,43,0,0,0,5.69-2.23,41,41,0,0,0,5.51-2.65,42.29,42.29,0,0,0-5.69,2.24A41.06,41.06,0,0,0,371.33,411.32Z" style="fill:#455a64"></path><path d="M375,405.7a18.64,18.64,0,0,0,4,.35,19.15,19.15,0,0,0,4.06-.09,19.25,19.25,0,0,0-4-.36A17.83,17.83,0,0,0,375,405.7Z" style="fill:#455a64"></path><path d="M393.35,365.78a3.55,3.55,0,0,1-.43.48l-1.32,1.3-4.91,4.73-16.33,15.46c-3.19,3-6.29,5.83-9,8.5A42.92,42.92,0,0,0,355,404a20.9,20.9,0,0,0-2.62,6.2l-.23,1c0,.3-.07.55-.11.78a2.5,2.5,0,0,1-.12.63,2.82,2.82,0,0,1,0-.64c0-.23,0-.49.06-.79s.11-.66.18-1.06a19.88,19.88,0,0,1,2.51-6.35,42,42,0,0,1,6.33-7.91c2.69-2.71,5.78-5.52,9-8.54L386.44,372l5-4.6,1.39-1.24A4.17,4.17,0,0,1,393.35,365.78Z" style="fill:#455a64"></path><path d="M379.49,315.69h0a7.91,7.91,0,0,1-11.07-3.95l-1.76-4.29s-6,2.12-9-3.35c-1.7-3.07-4.11-8.31-5.89-12.32a10.63,10.63,0,0,1,1-10.36h0c4.89-6.17,8.77-5.14,16.54-3.88l1.16.19,12.51,27.75A7.91,7.91,0,0,1,379.49,315.69Z" style="fill:#ffbe9d"></path><path d="M355.58,294.49a.91.91,0,1,0-1.15.55A.9.9,0,0,0,355.58,294.49Z" style="fill:#263238"></path><path d="M353.12,293.57c.14.05.45-.66,1.21-1.07s1.52-.32,1.55-.46-.16-.19-.5-.24a2,2,0,0,0-1.3.25,2.09,2.09,0,0,0-.9,1C353,293.34,353.06,293.55,353.12,293.57Z" style="fill:#263238"></path><path d="M362.16,290a.91.91,0,1,0,1.24-.33A.9.9,0,0,0,362.16,290Z" style="fill:#263238"></path><path d="M361.4,289.82c.14.05.45-.66,1.21-1.07s1.52-.32,1.55-.46-.16-.19-.5-.24a2,2,0,0,0-1.3.25,2.09,2.09,0,0,0-.9,1C361.32,289.59,361.34,289.8,361.4,289.82Z" style="fill:#263238"></path><path d="M362,297.85a3.83,3.83,0,0,0-1.36.4c-.21.08-.39.12-.46,0a1.23,1.23,0,0,1-.17-.64c-.07-.61-.15-1.22-.23-1.86a22.88,22.88,0,0,0-.89-4.75,24.34,24.34,0,0,0,.41,4.81c.09.64.18,1.25.27,1.86a1.4,1.4,0,0,0,.33.88.57.57,0,0,0,.51.13,1.3,1.3,0,0,0,.37-.14C361.6,298.18,362.07,297.91,362,297.85Z" style="fill:#263238"></path><path d="M366.61,307.38a14.49,14.49,0,0,0,6.07-5.91s.44,4.87-5.31,7.34Z" style="fill:#eb996e"></path><path d="M372.93,283.89c.09-.1,4.4-2.65,5.68,2.05,1.11,4.07-3.49,4.77-3.55,4.64S372.93,283.89,372.93,283.89Z" style="fill:#ffbe9d"></path><path d="M375.89,288.19s.08,0,.22,0a.74.74,0,0,0,.51-.18,1.8,1.8,0,0,0,.22-1.79,2.32,2.32,0,0,0-.55-.9.83.83,0,0,0-.7-.33.38.38,0,0,0-.33.33c0,.13,0,.2,0,.21s-.11,0-.13-.2a.43.43,0,0,1,.06-.3.55.55,0,0,1,.34-.24,1,1,0,0,1,.93.34,2.48,2.48,0,0,1,.63,1,1.86,1.86,0,0,1-.37,2,.76.76,0,0,1-.65.13C375.93,288.29,375.88,288.21,375.89,288.19Z" style="fill:#eb996e"></path><path d="M370.93,315s10.75-18,27.37-2.85c10.85,9.9,28.55,30.32,34.87,38.32,1.42,1.79,3.63,4.52,2.08,6.2-4.74,5.12-17.66,16.6-41.57,8L371,333.13a15.64,15.64,0,0,1-.09-18.12Z" style="fill:#FF725E"></path><polygon points="384.71 306.43 381.68 301.47 366.2 313.79 369.09 318.44 384.71 306.43" style="fill:#FF725E"></polygon><g style="opacity:0.30000000000000004"><path d="M384.05,307.07s-12.19,10.54-12.36,10.36-4.87-3.56-4.87-3.56l4.29,2.41Z"></path></g><path d="M384.84,306.37a3.44,3.44,0,0,0-.78.42c-.48.3-1.17.75-2,1.33-1.68,1.15-3.93,2.82-6.41,4.66-1.69,1.25-3.28,2.4-4.64,3.34h.2c-1.45-.78-2.66-1.43-3.51-1.86a8,8,0,0,0-1.37-.64,6.86,6.86,0,0,0,1.26.83c.82.5,2,1.19,3.43,2l.1.05.1-.06c1.39-.92,3-2.05,4.69-3.3l6.33-4.76,1.92-1.44A3.59,3.59,0,0,0,384.84,306.37Z" style="fill:#263238"></path><path d="M318.75,353.69l-2.94-1.19a27.11,27.11,0,0,1-5-1.92,7.59,7.59,0,0,1-2.15-1.53,11.88,11.88,0,0,1-2.08-2.56,1,1,0,0,0-1.94.07c-.17.91,1,3.47,3.47,5.57s-2.64,2-4.51,2-7.68.3-8.14.88c-.67.84.12,1.71,2,1.66s7.51.2,7.46,1.19-9.59.88-9.59.88-2-.35-2.13.79c-.16,2.07,10,1.42,11,1.33.67-.06.66,1-.07,1.05s-9.52-.32-9.71,1.78c-.14,1.61,8.37-.45,10.15.63s-6.61.91-6.68,2.45c0,.58,0,1,4.87.41s18.09-4.44,18.09-4.44l-2.22-9.21" style="fill:#ffbe9d"></path><path d="M376.19,321.28s-15.81,21.8-19.47,22.65-44.42,7.26-44.42,7.26l2,13.3s50.59-1.42,55.49-5.89,19.7-27.2,19.7-27.2Z" style="fill:#ffbe9d"></path><path d="M365.06,358.22s.11.18.42.37a2.62,2.62,0,0,0,1.5.31,2.58,2.58,0,0,0,1.95-1.17,2.64,2.64,0,0,0,.13-2.77,2.11,2.11,0,0,0-1.16-1,1.9,1.9,0,0,0-1.43.11,1.53,1.53,0,0,0-.59,2.15,1.27,1.27,0,0,0,1.47.44c.35-.15.44-.37.42-.38s-.16.13-.48.21a1.07,1.07,0,0,1-1.14-.44,1.19,1.19,0,0,1,.51-1.61,1.49,1.49,0,0,1,1.1-.06,1.68,1.68,0,0,1,.91.78,2.35,2.35,0,0,1-1.73,3.41A3.42,3.42,0,0,1,365.06,358.22Z" style="fill:#eb996e"></path><path d="M394.24,327.92l-15,25.75-17.3-14.32s12-19.62,17.65-25.7Z" style="fill:#FF725E"></path><path d="M351.22,377.08a7.69,7.69,0,0,1,5.06,6.61,12.81,12.81,0,0,0-5.06-6.61Z" style="fill:#455a64"></path><path d="M369.13,286.23a1.48,1.48,0,0,0,1.08.77c.45.09.91.08,1.37.17a3.16,3.16,0,0,1,1.83,1.07,4.69,4.69,0,0,0,.63.7.78.78,0,0,0,.88.09c.4-.3.22-.92,0-1.37q-1.41-2.79-2.8-5.58l-5.3,1.15,2.28,2.65" style="fill:#263238"></path><path d="M351.82,279.9c.61-.73,1.52-1.33,2.24-.7a4.66,4.66,0,0,1,1.24,2.54,8,8,0,0,0,.94,2.7,3.35,3.35,0,0,0,5.87-.64,11.6,11.6,0,0,0,2.5,3,3.91,3.91,0,0,0,3.67.71,2.4,2.4,0,0,0,1.36-3.17,4,4,0,0,0,2.41.92,2.25,2.25,0,0,0,2.1-1.29,1.6,1.6,0,0,0-1-2.1,2.88,2.88,0,0,0,3.27-.07,2.47,2.47,0,0,0,.63-3.13,2.17,2.17,0,0,0-3-.62,4.27,4.27,0,0,0,1.69-1.51,1.48,1.48,0,0,0-.47-2c-.83-.38-1.72.39-2.63.56-1.48.27-2.69-1.06-3.88-2a9.71,9.71,0,0,0-7.74-1.55,15.76,15.76,0,0,0-7.11,3.78c-1.34,1.17-2.63,2.87-2.09,4.56" style="fill:#263238"></path><path d="M355,290.68c0,.43-.41.8-.91,1a1.26,1.26,0,0,1-1.35-.1c-.29-.31,0-1,.78-1.35S355,290.25,355,290.68Z" style="fill:#263238"></path><path d="M362.88,286.88c-.09.43-.62.7-1.15.95s-1.1.45-1.48.22a.59.59,0,0,1-.1-.72,1.79,1.79,0,0,1,.94-.92,1.77,1.77,0,0,1,1.32-.09C362.74,286.45,362.9,286.67,362.88,286.88Z" style="fill:#263238"></path><path d="M365.17,296.1c.13-.05.47,1,0,2.1s-1.47,1.58-1.52,1.45.62-.68,1-1.66S365,296.12,365.17,296.1Z" style="fill:#263238"></path><path d="M376.71,280.12s-.07.06-.23.14a2.07,2.07,0,0,1-.76.16A2.63,2.63,0,0,1,373.3,279l.27.06a5,5,0,0,1-3.3,1.31,5.16,5.16,0,0,1-4-1.67l.44-.18a2,2,0,0,1-.94,1.7,2.87,2.87,0,0,1-1.94.47,4.8,4.8,0,0,1-2.72-1.66c-.69-.75-1.24-1.53-1.88-2.14a4.13,4.13,0,0,0-2.1-1.21,3.74,3.74,0,0,0-2.09.26,7.68,7.68,0,0,0-2.57,1.87,7.26,7.26,0,0,1-.86.84,5.21,5.21,0,0,1,.71-1,7.31,7.31,0,0,1,2.57-2.07,4.18,4.18,0,0,1,2.32-.35,4.48,4.48,0,0,1,2.35,1.29c.69.65,1.26,1.43,1.92,2.14a4.37,4.37,0,0,0,2.41,1.49c1.1.16,2.37-.62,2.32-1.63l0-.73.48.56a4.84,4.84,0,0,0,3.65,1.56,4.76,4.76,0,0,0,3.07-1.12l.18-.16.09.21a2.45,2.45,0,0,0,2.11,1.39A5.35,5.35,0,0,0,376.71,280.12Z" style="fill:#455a64"></path><path d="M396.75,323.94c-.05,0,0-.6-.23-1.64a11.52,11.52,0,0,0-1.63-4.16,10.88,10.88,0,0,0-4.95-4.23,11.33,11.33,0,0,0-7.9-.28,12.42,12.42,0,0,0-3.63,2,18.73,18.73,0,0,0-2.8,2.75,46.09,46.09,0,0,0-3.8,5.53c-1,1.63-1.82,3-2.43,3.85-.29.45-.54.78-.71,1s-.26.34-.28.33a11.51,11.51,0,0,1,.82-1.45c.58-1,1.35-2.33,2.28-3.93a43.2,43.2,0,0,1,3.75-5.65,15.3,15.3,0,0,1,6.64-5,11.63,11.63,0,0,1,8.25.33,11.29,11.29,0,0,1,6.59,8.79,7.76,7.76,0,0,1,.07,1.25A1.34,1.34,0,0,1,396.75,323.94Z" style="fill:#263238"></path><path d="M392.34,333.36a1.13,1.13,0,0,0-.4-.82,1.83,1.83,0,0,0-1-.38,5.16,5.16,0,0,1-1.56-.28,4.76,4.76,0,0,1-2.35-3.33c-.21-.74-.37-1.51-.65-2.26a3.91,3.91,0,0,0-1.35-1.94,4.83,4.83,0,0,0-2.26-.79,16.7,16.7,0,0,0-2.34,0,7.89,7.89,0,0,1-4-.6,3.4,3.4,0,0,1-1.76-2.11,1.9,1.9,0,0,1-.05-.76.65.65,0,0,1,.07-.25,7.1,7.1,0,0,0,.17,1,3.41,3.41,0,0,0,1.74,1.84,8,8,0,0,0,3.86.44c1.47-.06,3.33-.2,4.92.89a4.34,4.34,0,0,1,1.52,2.18c.29.8.44,1.59.63,2.32a4.49,4.49,0,0,0,2,3.11,5.31,5.31,0,0,0,1.46.34,1.87,1.87,0,0,1,1.1.52,1,1,0,0,1,.34.7C392.4,333.28,392.35,333.36,392.34,333.36Z" style="fill:#fafafa"></path><path d="M386.37,341.91c-.06,0-.08-.33-.43-.8a3.87,3.87,0,0,0-2-1.26c-1-.33-2.28-.29-3.69-.75a3.74,3.74,0,0,1-1.9-1.35c-.47-.67-.73-1.45-1.16-2.08-.88-1.28-2.46-1.71-3.8-2a9.56,9.56,0,0,1-3.56-1.35,3.61,3.61,0,0,1-1.42-2.15,1.45,1.45,0,0,1,.08-.95c.05,0,0,.34.12.9A3.5,3.5,0,0,0,370,332a9.87,9.87,0,0,0,3.45,1.19,11.16,11.16,0,0,1,2.17.66,4.47,4.47,0,0,1,1.95,1.55c.48.72.73,1.49,1.15,2.07a3.25,3.25,0,0,0,1.64,1.2c1.29.45,2.6.46,3.65.85a3.84,3.84,0,0,1,2.09,1.5,1.81,1.81,0,0,1,.25.67C386.38,341.83,386.39,341.91,386.37,341.91Z" style="fill:#fafafa"></path><path d="M414,328.36a1.12,1.12,0,0,1,0,.42,4.06,4.06,0,0,1-.44,1.12,7.35,7.35,0,0,1-3.36,2.79c-.84.39-1.79.74-2.77,1.17a8.91,8.91,0,0,0-2.81,1.82c-1.7,1.68-2.53,4.28-3.73,6.83a11.09,11.09,0,0,1-2.32,3.45,4.81,4.81,0,0,1-.79.64,5,5,0,0,1-.85.53,8.33,8.33,0,0,1-1.82.62c-2.43.52-4.64.39-6.37.94a5.43,5.43,0,0,0-3.35,2.42,5.08,5.08,0,0,0-.51,1.48s0-.15,0-.42a3.26,3.26,0,0,1,.34-1.15,5.55,5.55,0,0,1,3.42-2.69c1.8-.61,4.05-.52,6.37-1.05a7.73,7.73,0,0,0,1.71-.6,4.61,4.61,0,0,0,.78-.49,4.16,4.16,0,0,0,.73-.6,10.76,10.76,0,0,0,2.2-3.31c1.18-2.49,2-5.16,3.86-6.94a9,9,0,0,1,3-1.87c1-.43,1.95-.75,2.78-1.12a7.5,7.5,0,0,0,3.35-2.56A6.07,6.07,0,0,0,414,328.36Z" style="fill:#fafafa"></path><path d="M424.05,340.73a3.3,3.3,0,0,1-.64,1.56,8.21,8.21,0,0,1-3.65,2.77c-1.78.82-4.1,1.19-6.3,2.38a6.71,6.71,0,0,0-2.73,2.66,38.09,38.09,0,0,0-1.68,3.9,13.14,13.14,0,0,1-5.51,6.22,12.61,12.61,0,0,1-6.59,1.69,12.47,12.47,0,0,1-4.49-.92,10.42,10.42,0,0,1-1.13-.54c-.25-.15-.37-.23-.36-.25s.55.24,1.56.6a13.41,13.41,0,0,0,4.43.74,12.53,12.53,0,0,0,6.34-1.73,12.85,12.85,0,0,0,5.27-6,35.86,35.86,0,0,1,1.72-4,7.23,7.23,0,0,1,2.94-2.82c2.32-1.22,4.64-1.54,6.39-2.3a8.55,8.55,0,0,0,3.63-2.54A8.14,8.14,0,0,0,424.05,340.73Z" style="fill:#fafafa"></path><path d="M433.12,350.51a18.51,18.51,0,0,0-4,2.44,13.22,13.22,0,0,0-3.17,3.94c-.46.83-.78,1.79-1.2,2.78a5.93,5.93,0,0,1-2,2.71,7.05,7.05,0,0,1-3.21,1c-1.07.12-2.08.15-3,.31a17.12,17.12,0,0,0-4.84,1.53,25.9,25.9,0,0,0-4,2.55,4.91,4.91,0,0,1,.9-.92,16,16,0,0,1,2.91-2,16.62,16.62,0,0,1,4.94-1.67c1-.18,2-.22,3-.35a6.68,6.68,0,0,0,3-.93,5.51,5.51,0,0,0,1.83-2.48c.41-1,.76-1.94,1.24-2.81a13.11,13.11,0,0,1,3.36-4,12.5,12.5,0,0,1,3-1.79c.39-.15.69-.25.9-.31S433.11,350.49,433.12,350.51Z" style="fill:#fafafa"></path><path d="M393,332a6.41,6.41,0,0,0,2.28-1.44,7.94,7.94,0,0,0,1.6-2.45,22.15,22.15,0,0,0,1.07-3.49,18.72,18.72,0,0,1,1.19-3.55,7.39,7.39,0,0,1,1.88-2.45,4.63,4.63,0,0,1,1.84-1,1.64,1.64,0,0,1,.76-.06,6.45,6.45,0,0,0-2.36,1.3,7.78,7.78,0,0,0-1.69,2.39,19.66,19.66,0,0,0-1.11,3.47,21.54,21.54,0,0,1-1.14,3.56,7.89,7.89,0,0,1-1.78,2.52,4.83,4.83,0,0,1-1.79,1.07A1.41,1.41,0,0,1,393,332Z" style="fill:#fafafa"></path><path d="M390.11,314a5.86,5.86,0,0,1,4.14-4.53c.06.14-1.2.77-2.33,2S390.25,314.09,390.11,314Z" style="fill:#fafafa"></path><path d="M383.09,303.76a15.34,15.34,0,0,1-1.57,2.35,29.72,29.72,0,0,1-1.88,2.44,4.76,4.76,0,0,1-1.52,1.13,4.9,4.9,0,0,1-2,.33,13.31,13.31,0,0,0-1.91,0,4.78,4.78,0,0,0-1.61.54,4.45,4.45,0,0,0-1.92,2.13,6.33,6.33,0,0,0-.41,2.7,1.59,1.59,0,0,1-.2-.75,4.45,4.45,0,0,1,.27-2.09,4.62,4.62,0,0,1,2-2.4,4.78,4.78,0,0,1,1.78-.63,13.1,13.1,0,0,1,2-.05,3.76,3.76,0,0,0,3.17-1.27c.77-.81,1.38-1.67,1.94-2.34A14.77,14.77,0,0,1,383.09,303.76Z" style="fill:#fafafa"></path><g style="opacity:0.2"><polygon points="396.37 327.17 388.78 357.92 382.14 348.67 396.37 327.17"></polygon></g><path d="M429.29,428.4c-.14,0-.26-5.11-.26-11.41s.12-11.42.26-11.42.26,5.11.26,11.42S429.44,428.4,429.29,428.4Z" style="fill:#455a64"></path></g><g id="freepik--Plant--inject-33"><path d="M91.19,371.73A11.21,11.21,0,0,1,99,375.8a19.83,19.83,0,0,1,3.92,8.06c1.46,5.65.48,12.29-1.18,17.88-6.08-2.23-9.78-8.77-11.46-12.2-2.64-5.43-4.12-16.84.93-17.81" style="fill:#FF725E"></path><path d="M110.44,408.65a9.59,9.59,0,0,1-.37-9.62,12.73,12.73,0,0,1,7.72-6.09,5.38,5.38,0,0,1,4.5.25,4.09,4.09,0,0,1,1.55,3.86,8.3,8.3,0,0,1-1.79,3.93c-3,4-6.63,7.3-11.61,7.67" style="fill:#FF725E"></path><path d="M111,427.48a7.21,7.21,0,0,1-.27-1.18c-.15-.83-.35-1.91-.6-3.21a34,34,0,0,1-.57-10.79,20.49,20.49,0,0,1,4.09-10,13.86,13.86,0,0,1,2.33-2.32,6.4,6.4,0,0,1,.73-.51,1.5,1.5,0,0,1,.27-.16,23.11,23.11,0,0,0-3.1,3.17,21.23,21.23,0,0,0-3.9,9.84,36.15,36.15,0,0,0,.45,10.68c.21,1.36.37,2.47.47,3.24A6.62,6.62,0,0,1,111,427.48Z" style="fill:#263238"></path><path d="M93.09,380.32a2.81,2.81,0,0,1,.24.46l.61,1.37c.53,1.18,1.28,2.91,2.18,5.05,1.8,4.28,4.2,10.23,6.71,16.86s4.64,12.69,6.12,17.1c.74,2.2,1.33,4,1.71,5.22.18.59.33,1.06.44,1.43a2.79,2.79,0,0,1,.13.51,3.07,3.07,0,0,1-.21-.48l-.51-1.4c-.45-1.28-1.08-3-1.84-5.19-1.56-4.37-3.73-10.41-6.24-17s-4.86-12.59-6.59-16.9c-.85-2.11-1.54-3.85-2-5.1l-.54-1.39A1.94,1.94,0,0,1,93.09,380.32Z" style="fill:#263238"></path><path d="M103.81,415a22.42,22.42,0,0,0-17.29-11c-1.81-.14-4,.14-4.79,1.75s.24,3.55,1.45,4.89a19.17,19.17,0,0,0,20.7,4.81" style="fill:#FF725E"></path><path d="M89.22,408.85a7.93,7.93,0,0,1,1.13.06,9.24,9.24,0,0,1,1.31.16c.51.1,1.1.16,1.73.34a18.75,18.75,0,0,1,2,.59,20.11,20.11,0,0,1,2.28.89,23,23,0,0,1,8.76,6.88,23.73,23.73,0,0,1,1.39,2,21.27,21.27,0,0,1,1,1.87c.31.58.5,1.14.7,1.61a9.67,9.67,0,0,1,.44,1.26,5.16,5.16,0,0,1,.28,1.09c-.09,0-.51-1.53-1.69-3.82a18.82,18.82,0,0,0-1.06-1.82,22,22,0,0,0-1.4-2,25.24,25.24,0,0,0-3.91-3.89,26.57,26.57,0,0,0-4.7-2.88,21.1,21.1,0,0,0-2.24-.91,20.53,20.53,0,0,0-2-.63C90.82,409.05,89.21,409,89.22,408.85Z" style="fill:#263238"></path></g></svg>